# xmcd CD database file
#
# Track frame offsets:
#	150
#	11313
#	23556
#	35076
#	48753
#	60932
#	75349
#	85963
#	97292
#	108878
#	119016
#	132937
#	146188
#	160765
#	175633
#	187483
#	208108
#	223293
#	240579
#	252771
#	276509
#	289358
#
# Disc length: 4062 seconds
#
# Revision: 3
# Processed by: cddbd v1.4PL0 Copyright (c) Steve Scherf et al.
# Submitted via: CDex 1.50
#
DISCID=440fdc16
DTITLE=Cannonball Adderley - Julian "Cannonball" Adderley and Strings - Jump For Joy
DYEAR=1900
DGENRE=Jazz
TTITLE0=I Cover The Waterfront
TTITLE1=A Foggy Day
TTITLE2=The Surrey with the Fringe on Top
TTITLE3=Two Sleepy People
TTITLE4=I'll Never Stop Loving You
TTITLE5=(I'm Afraid) The Masquerade Is Over
TTITLE6=I've Never Been in Love Before
TTITLE7=Lonely Dreams
TTITLE8=Falling in Love with Love
TTITLE9=Street of Dreams
TTITLE10=Polka Dots and Moonbeams (Around a Pug-nosed Dream)
TTITLE11=You Are Too Beautiful
TTITLE12=Two Left Feet
TTITLE13=Just Squeeze Me (but Don't Tease Me)
TTITLE14=I Got It Bad (and That Ain't Good)
TTITLE15=Nothin'
TTITLE16=Jump for Joy
TTITLE17=Bli-blip
TTITLE18=Chocolate Shake
TTITLE19=If Life Were All Peaches and Cream
TTITLE20=Brown-skin Gal (in the Calico Gown)
TTITLE21=The Tune of the Hickory Stick
EXTD=
EXTT0=
EXTT1=
EXTT2=
EXTT3=
EXTT4=
EXTT5=
EXTT6=
EXTT7=
EXTT8=
EXTT9=
EXTT10=
EXTT11=
EXTT12=
EXTT13=
EXTT14=
EXTT15=
EXTT16=
EXTT17=
EXTT18=
EXTT19=
EXTT20=
EXTT21=
PLAYORDER=
